<svg width="175" height="175" viewBox="0 0 175 175" fill="none" xmlns="http://www.w3.org/2000/svg">
<path d="M50.0391 99.9903L75.4125 88.6973L90.017 97.1671L92.9674 124.954L74.97 124.805L77.6253 105.488L74.5274 103.705L59.3328 115.593L50.0391 99.9903Z" fill="#1976d2"/>
<path d="M91.6406 95.9774L114.064 112.471L122.915 96.5718L104.917 89.2907V85.7245L122.915 78.2948L114.064 62.5439L91.6406 79.0378V95.9774Z" fill="#1976d2"/>
<path d="M90.017 77.701L92.9674 49.9141L74.97 50.2112L77.6253 69.5284L74.5274 71.3115L59.1853 59.424L50.0391 74.8777L75.4125 86.1708L90.017 77.701Z" fill="#1976d2"/>
<path d="M182.958 84.1039V110.136H192.644V76.9604H178.538V84.1039H182.958Z" fill="#1976d2"/>
</svg>
